<?xml version="1.0" encoding="UTF-8"?>
<svg version="1.1" xmlns="http://www.w3.org/2000/svg" width="512" height="512">
<path d="M0 0 C2.65527344 1.25244141 2.65527344 1.25244141 5.359375 2.8515625 C6.88884766 3.74584961 6.88884766 3.74584961 8.44921875 4.65820312 C10.08310547 5.63176758 10.08310547 5.63176758 11.75 6.625 C12.90697352 7.30502178 14.06453713 7.98404047 15.22265625 8.66210938 C17.62665148 10.07067324 20.02805773 11.48350641 22.42773438 12.89941406 C27.9283488 16.14016978 33.46603409 19.31666323 39 22.5 C41.16684034 23.74969892 43.3335065 24.99969989 45.5 26.25 C47.10875 27.178125 47.10875 27.178125 48.75 28.125 C78 45 107.25 61.875 136.5 78.75 C137.57266113 79.36883057 138.64532227 79.98766113 139.75048828 80.62524414 C141.91557071 81.87435518 144.08060982 83.12354129 146.24560547 84.37280273 C151.68615706 87.51202309 157.12747216 90.64990563 162.5703125 93.78515625 C163.66859375 94.41808594 164.766875 95.05101563 165.8984375 95.703125 C167.9215791 96.86900321 169.94497682 98.03443721 171.96875 99.19921875 C173.96256618 100.34846937 175.92539714 101.55273072 177.85818481 102.80189514 C181.09620462 104.72077911 184.19719684 105.62624805 187.83297729 106.56541443 C195.16944515 108.9196019 202.01851538 112.07506338 206 119 C211.38289083 134.33030004 209.41385957 153.05850908 209.2238121 169.02724266 C209.18096081 173.0396398 209.18925681 177.0508627 209.21157837 181.06336975 C209.21525596 181.73184355 209.21893355 182.40031735 209.22272259 183.08904794 C209.23039691 184.44753783 209.23817805 185.80602712 209.24606478 187.16451579 C209.31431833 199.86961976 209.23612591 212.5705517 209.10685599 225.27497083 C208.99962718 236.14943024 209.01825765 247.01774133 209.12890625 257.89208984 C209.25769362 270.55479968 209.30772881 283.2138642 209.23421192 295.87713766 C209.22656769 297.2303013 209.21902277 298.5834655 209.21157837 299.93663025 C209.20787576 300.60220925 209.20417314 301.26778824 209.20035833 301.9535363 C209.17973332 306.61848614 209.21557222 311.28040118 209.27108765 315.94508362 C209.70207708 357.76381596 209.70207708 357.76381596 203.60741806 365.57022285 C198.06354886 370.75860582 192.0588318 373.34299588 184.77456284 375.22461128 C180.98538948 376.28354649 178.17528105 377.99316494 174.8828125 380.12109375 C172.96389348 381.22717308 171.04463128 382.33265727 169.125 383.4375 C166.94009462 384.69659802 164.75519908 385.95571311 162.5703125 387.21484375 C161.48524414 387.83987793 160.40017578 388.46491211 159.28222656 389.10888672 C153.85340058 392.23680148 148.42680719 395.36858448 143 398.5 C140.83334417 399.75001879 138.6666775 401.00001878 136.5 402.25 C135.4275 402.86875 134.355 403.4875 133.25 404.125 C97.5 424.75 97.5 424.75 94.24951172 426.62524414 C92.08442929 427.87435518 89.91939018 429.12354129 87.75439453 430.37280273 C82.31384294 433.51202309 76.87252784 436.64990563 71.4296875 439.78515625 C60.97793383 445.80747569 50.53734026 451.84726325 40.125 457.9375 C31.6653871 462.8795639 23.19030576 467.79424457 14.69256592 472.67044067 C13.45091551 473.38341316 12.20989472 474.09748342 10.96954346 474.81271362 C9.23806653 475.81066904 7.50384879 476.80386442 5.76953125 477.796875 C4.27836792 478.65297363 4.27836792 478.65297363 2.75708008 479.52636719 C-2.47896857 482.32498488 -2.47896857 482.32498488 -5 483 C-7.3581543 482.17993164 -7.3581543 482.17993164 -9.82421875 480.66015625 C-10.75669434 480.09949463 -11.68916992 479.53883301 -12.64990234 478.96118164 C-13.65230957 478.3346167 -14.6547168 477.70805176 -15.6875 477.0625 C-17.86003599 475.74893909 -20.03323566 474.43647535 -22.20703125 473.125 C-23.32932129 472.44050781 -24.45161133 471.75601562 -25.60791016 471.05078125 C-30.9810896 467.80227777 -36.42789028 464.6848707 -41.875 461.5625 C-44.06015548 460.30383608 -46.24504992 459.04471886 -48.4296875 457.78515625 C-49.51475586 457.16012207 -50.59982422 456.53508789 -51.71777344 455.89111328 C-57.14659942 452.76319852 -62.57319281 449.63141552 -68 446.5 C-70.16665583 445.24998121 -72.3333225 443.99998122 -74.5 442.75 C-104.83333333 425.25 -135.16666667 407.75 -165.5 390.25 C-167.11152954 389.32030396 -167.11152954 389.32030396 -168.75561523 388.37182617 C-170.90364046 387.13253733 -173.05159075 385.89311859 -175.19946289 384.65356445 C-180.28655549 381.71797433 -185.37441847 378.78374328 -190.4649353 375.85409546 C-192.87543748 374.46671905 -195.28551376 373.07860376 -197.69555664 371.69042969 C-199.40143968 370.70826185 -201.10793986 369.72716615 -202.81445312 368.74609375 C-204.35842773 367.85664062 -204.35842773 367.85664062 -205.93359375 366.94921875 C-207.2956897 366.16550903 -207.2956897 366.16550903 -208.68530273 365.3659668 C-210.49126201 364.30022034 -212.25521129 363.16319248 -214 362 C-214.37259549 360.1934799 -214.37259549 360.1934799 -214.36914349 357.95888329 C-214.37511663 357.10843606 -214.38108978 356.25798884 -214.38724393 355.38177049 C-214.3785054 354.44209574 -214.36976688 353.50242099 -214.36076355 352.53427124 C-214.36332682 351.54025917 -214.3658901 350.54624709 -214.36853105 349.52211344 C-214.37349763 346.17001678 -214.35692858 342.81836419 -214.34057617 339.46630859 C-214.33973052 337.07195547 -214.34020383 334.67760157 -214.34190369 332.2832489 C-214.34258825 327.11743195 -214.33404408 321.95171661 -214.31719017 316.78593063 C-214.29283793 309.31702726 -214.28499879 301.84817889 -214.2812262 294.37924011 C-214.27465576 282.26223573 -214.2546786 270.14529184 -214.22631836 258.02832031 C-214.19879307 246.25586246 -214.17755202 234.48342102 -214.16479492 222.7109375 C-214.16400675 221.98562302 -214.16321858 221.26030854 -214.16240653 220.51301484 C-214.15849149 216.8744269 -214.15470035 213.23583884 -214.15097082 209.5972507 C-214.11985649 179.39812382 -214.06678207 149.19907029 -214 119 C-213.21463867 118.55197021 -212.42927734 118.10394043 -211.62011719 117.64233398 C-208.64524653 115.94487436 -205.67067451 114.24689358 -202.69628906 112.54858398 C-201.42036264 111.82019197 -200.14432491 111.09199489 -198.86816406 110.36401367 C-190.55259401 105.62021012 -182.26028769 100.83969488 -174 96 C-165.36382054 90.94574045 -156.69395436 85.95393878 -148 81 C-138.27875494 75.46014067 -128.59105132 69.86625068 -118.93310547 64.21655273 C-108.40915375 58.06233258 -97.84619863 51.97630004 -87.28222656 45.89111328 C-81.85340058 42.76319852 -76.42680719 39.63141552 -71 36.5 C-68.83334417 35.24998121 -66.6666775 33.99998122 -64.5 32.75 C-63.4275 32.13125 -62.355 31.5125 -61.25 30.875 C-58 29 -54.75 27.125 -51.5 25.25 C-50.42588867 24.62996094 -49.35177734 24.00992187 -48.24511719 23.37109375 C-46.09598426 22.13193074 -43.9456082 20.89492106 -41.79394531 19.66015625 C-36.70898524 16.73858186 -31.63959655 13.79655101 -26.61242676 10.7767334 C-24.23637058 9.35122749 -21.85313376 7.93798164 -19.46923828 6.52563477 C-17.78875017 5.52311693 -16.11882645 4.50295724 -14.44921875 3.48242188 C-13.42957031 2.87978516 -12.40992188 2.27714844 -11.359375 1.65625 C-10.46702148 1.11806641 -9.57466797 0.57988281 -8.65527344 0.02539062 C-5.26497747 -1.28384467 -3.47699506 -0.97847078 0 0 Z M-143 152 C-137.97914237 158.70812882 -137.97914237 158.70812882 -132.5625 164.9375 C-131.01421014 166.59984436 -129.49744648 168.29171305 -128 170 C-127.10341675 170.89537476 -127.10341675 170.89537476 -126.1887207 171.80883789 C-120.04937685 178.53198678 -119.98570988 184.73163674 -120.0625 193.5625 C-120.04638672 194.85736328 -120.03027344 196.15222656 -120.01367188 197.48632812 C-119.97855401 200.65864208 -119.97479507 203.82768818 -120 207 C-118.83150513 207.029729 -118.83150513 207.029729 -117.6394043 207.06005859 C-75.67445875 208.17879416 -75.67445875 208.17879416 -56 214 C-54.12441406 214.53947266 -54.12441406 214.53947266 -52.2109375 215.08984375 C-43.76998431 217.77395842 -36.61588952 221.20291262 -31.7890625 228.94140625 C-28.85145683 235.61165766 -29.04431419 242.99717703 -31.375 249.8125 C-37.04897588 262.4943338 -47.85184021 273.55581206 -59.48828125 280.875 C-69.73013288 287.4229495 -75.1157652 292.33110979 -77.9609375 304.33203125 C-78.12561523 305.09725098 -78.29029297 305.8624707 -78.45996094 306.65087891 C-79.02028494 309.08823767 -79.71996463 311.44088715 -80.4765625 313.82421875 C-80.72172607 314.59862305 -80.96688965 315.37302734 -81.21948242 316.17089844 C-81.57490112 317.29286621 -81.57490112 317.29286621 -81.9375 318.4375 C-83.73750567 323.65570774 -83.73750567 323.65570774 -83 329 C-82.46375 328.46632813 -81.9275 327.93265625 -81.375 327.3828125 C-52.72610631 300.14751554 -12.37039755 291.41764995 26 292 C25.4831665 292.1952124 24.96633301 292.3904248 24.43383789 292.59155273 C2.44725503 300.96427265 -18.25926401 311.06639839 -35 328 C-35 328.33 -35 328.66 -35 329 C6.58 329 48.16 329 91 329 C89.55017209 322.15363332 89.55017209 322.15363332 87.59765625 315.5703125 C87.34975342 314.84344238 87.10185059 314.11657227 86.84643555 313.36767578 C86.30755968 311.82606452 85.76590044 310.28542426 85.22192383 308.74560547 C83.74508368 304.49416229 82.77303135 300.60106185 82.1875 296.125 C80.3772898 288.993208 73.23243856 285.74870197 67.4453125 281.98046875 C54.19795924 273.31917196 42.07152089 261.21456266 37 246 C36.18547953 237.97851989 36.01395449 231.37369599 41.1875 224.8828125 C49.9610525 215.76890667 63.42073324 209.08837218 75.8125 206.875 C97.17959129 202.41225309 120.56454138 195.28199888 134.125 177.0625 C136.17405129 174.31419883 136.17405129 174.31419883 136 172 C107.29 172 78.58 172 49 172 C49 165.4 49 158.8 49 152 C-14.36 152 -77.72 152 -143 152 Z " fill="#7d7d7d50" transform="translate(260,1)"/>
<path d="M0 0 C63.36 0 126.72 0 192 0 C192 6.6 192 13.2 192 20 C220.71 20 249.42 20 279 20 C273.92300826 32.69247936 262.34469542 40.02595105 250.22265625 45.3046875 C239.99552966 49.53476822 229.3142044 52.50776821 218.5625 55.0625 C203.97765944 58.56070899 189.15611045 64.65917444 180.87109375 77.7890625 C178.40046501 84.05980629 179.01772706 92.66368131 181.625 98.8125 C182.37988634 100.22856265 183.17208865 101.62535474 184 103 C184.38929688 103.70125 184.77859375 104.4025 185.1796875 105.125 C194.09015169 119.88789925 208.95576559 129.63717706 223 139 C223.90266173 141.32412903 224.63752399 143.54742571 225.3125 145.9375 C225.73868911 147.37786906 226.16581494 148.8179612 226.59375 150.2578125 C226.93019531 151.40491699 226.93019531 151.40491699 227.2734375 152.57519531 C228.03623867 155.12094168 228.83998775 157.65059718 229.65625 160.1796875 C229.93170654 161.0344165 230.20716309 161.88914551 230.4909668 162.76977539 C231.03193998 164.44413963 231.57501817 166.11782545 232.12036133 167.79077148 C232.3655249 168.55719971 232.61068848 169.32362793 232.86328125 170.11328125 C233.08282471 170.79173096 233.30236816 171.47018066 233.52856445 172.16918945 C234 174 234 174 234 177 C192.42 177 150.84 177 108 177 C112.24523082 172.04723071 115.72193662 168.30379491 120.875 164.625 C121.85218994 163.92238037 121.85218994 163.92238037 122.84912109 163.20556641 C136.91884655 153.28171557 152.65945857 145.44684714 169 140 C131.04527015 138.68870415 91.93039177 148.46396828 63 174 C61.67204257 175.00712802 60.33949495 176.00826866 59 177 C60.40127127 169.06021435 62.48382241 161.40151859 64.8125 153.6875 C65.14314453 152.53443359 65.47378906 151.38136719 65.81445312 150.19335938 C68.94359519 139.83295617 68.94359519 139.83295617 74 136 C75.2065625 135.08347656 75.2065625 135.08347656 76.4375 134.1484375 C77.7059375 133.27058594 77.7059375 133.27058594 79 132.375 C93.52511167 121.94119337 107.15140681 110.54577958 113 93 C113.69917011 85.43013903 113.19792243 78.92074051 108.2890625 72.90234375 C102.13829387 66.78587308 95.20972093 64.36135272 87 62 C85.74960938 61.63003906 84.49921875 61.26007813 83.2109375 60.87890625 C63.62908015 55.37290209 43.18674274 55.51359383 23 55 C23.02525757 53.81410278 23.02525757 53.81410278 23.05102539 52.60424805 C24.18673008 35.4935746 24.18673008 35.4935746 18 20.375 C16.3755777 18.86975382 14.7079407 17.40977035 13 16 C11.37105777 14.25193004 9.7662951 12.48099029 8.1875 10.6875 C7.47980469 9.92824219 6.77210937 9.16898438 6.04296875 8.38671875 C4 6 4 6 0 0 Z " fill="orange" class="forge" transform="translate(117,153)"/>
<path d="M0 0 C8.95163078 4.32136626 17.54666455 8.99356757 26.08203125 14.08203125 C31.83363018 17.50869311 37.63554776 20.84703417 43.4375 24.1875 C44.54383789 24.82494141 45.65017578 25.46238281 46.79003906 26.11914062 C49.06155677 27.42779629 51.33320497 28.73622549 53.60498047 30.04443359 C59.0716998 33.19332054 64.53574887 36.34683264 70 39.5 C72.16665311 40.7500235 74.33331979 42.00002347 76.5 43.25 C98.16666667 55.75 119.83333333 68.25 141.5 80.75 C142.57282227 81.36891113 143.64564453 81.98782227 144.75097656 82.62548828 C146.91447476 83.87371034 149.07788643 85.12208239 151.24121094 86.37060547 C156.70565017 89.52405256 162.17163645 92.67476096 167.640625 95.8203125 C168.73544189 96.45074463 169.83025879 97.08117676 170.95825195 97.73071289 C173.132658 98.98200834 175.30825598 100.23123509 177.48510742 101.47827148 C182.82161556 104.54510377 188.11302681 107.66425307 193.34765625 110.90234375 C194.85634277 111.82635986 194.85634277 111.82635986 196.39550781 112.76904297 C198.29379275 113.93616727 200.18308146 115.11809488 202.06152344 116.31689453 C203.32464355 117.09009033 203.32464355 117.09009033 204.61328125 117.87890625 C205.34329346 118.3385376 206.07330566 118.79816895 206.82543945 119.27172852 C209.03249093 120.23755747 209.03249093 120.23755747 211.43920898 119.31420898 C214.10522447 117.94599835 216.74595712 116.56051118 219.359375 115.09375 C220.38345459 114.52019775 221.40753418 113.94664551 222.46264648 113.35571289 C223.54747314 112.74332764 224.6322998 112.13094238 225.75 111.5 C226.87672119 110.86634521 228.00344238 110.23269043 229.16430664 109.57983398 C235.95517743 105.74999436 242.70984746 101.86664399 249.4152832 97.8894043 C255.72724525 94.14695337 262.07941601 90.47596521 268.4375 86.8125 C269.54472412 86.17449463 270.65194824 85.53648926 271.79272461 84.87915039 C274.06337068 83.57110523 276.33412358 82.26324552 278.60498047 80.95556641 C284.0716998 77.80667946 289.53574887 74.65316736 295 71.5 C297.16665311 70.2499765 299.33331979 68.99997653 301.5 67.75 C302.5725 67.13125 303.645 66.5125 304.75 65.875 C340.5 45.25 340.5 45.25 343.75048828 43.37475586 C345.91557071 42.12564482 348.08060982 40.87645871 350.24560547 39.62719727 C355.68615706 36.48797691 361.12747216 33.35009437 366.5703125 30.21484375 C368.75523931 28.95578292 370.94013529 27.69666859 373.125 26.4375 C374.19105469 25.82342285 375.25710938 25.2093457 376.35546875 24.57666016 C381.78747353 21.44401706 387.2097879 18.29604403 392.6171875 15.12109375 C393.68952637 14.49211182 394.76186523 13.86312988 395.86669922 13.21508789 C397.88304083 12.0309546 399.89782019 10.84415496 401.91064453 9.65405273 C402.82700684 9.11594971 403.74336914 8.57784668 404.6875 8.0234375 C405.47511719 7.55856934 406.26273437 7.09370117 407.07421875 6.61474609 C411.31169783 4.27607064 415.67096945 2.16451527 420 0 C420 9.57 420 19.14 420 29 C338.75 75.875 338.75 75.875 257.5 122.75 C256.42588867 123.37003906 255.35177734 123.99007812 254.24511719 124.62890625 C252.09598426 125.86806926 249.9456082 127.10507894 247.79394531 128.33984375 C242.70898524 131.26141814 237.63959655 134.20344899 232.61242676 137.2232666 C230.23637058 138.64877251 227.85313376 140.06201836 225.46923828 141.47436523 C223.78875017 142.47688307 222.11882645 143.49704276 220.44921875 144.51757812 C219.42957031 145.12021484 218.40992188 145.72285156 217.359375 146.34375 C216.46702148 146.88193359 215.57466797 147.42011719 214.65527344 147.97460938 C211.26497747 149.28384467 209.47699506 148.97847078 206 148 C203.34472656 146.74755859 203.34472656 146.74755859 200.640625 145.1484375 C199.11115234 144.25415039 199.11115234 144.25415039 197.55078125 143.34179688 C196.46152344 142.69275391 195.37226563 142.04371094 194.25 141.375 C193.09302648 140.69497822 191.93546287 140.01595953 190.77734375 139.33789062 C188.37334852 137.92932676 185.97194227 136.51649359 183.57226562 135.10058594 C178.0716512 131.85983022 172.53396591 128.68333677 167 125.5 C164.83315966 124.25030108 162.6664935 123.00030011 160.5 121.75 C159.4275 121.13125 158.355 120.5125 157.25 119.875 C145.33333333 113 133.41666667 106.125 121.5 99.25 C120.42733887 98.63116943 119.35467773 98.01233887 118.24951172 97.37475586 C116.08442929 96.12564482 113.91939018 94.87645871 111.75439453 93.62719727 C106.31384294 90.48797691 100.87252784 87.35009437 95.4296875 84.21484375 C84.97793801 78.19252671 74.53700452 72.15330663 64.125 66.0625 C57.21899967 62.0234113 50.30143867 58.00579708 43.34628296 54.05184937 C40.38008156 52.36518383 37.42327057 50.66566195 34.48388672 48.93261719 C28.74405076 45.56803749 23.02797383 42.50434639 16.890625 39.89453125 C3.8483925 34.0315265 3.8483925 34.0315265 0 29 C-2.76790712 19.60964842 -1.48765241 9.53051167 0 0 Z " fill="darkorange" transform="translate(46,363)"/>
</svg>
